<?xml version="1.0" encoding="utf-8"?>
<!-- Designed by Vexels.com - 2016 All Rights Reserved - https://vexels.com/terms-and-conditions/  -->

<svg version="1.1" id="Layer_1" xmlns="http://www.w3.org/2000/svg" xmlns:xlink="http://www.w3.org/1999/xlink" x="0px" y="0px"
	 width="1200px" height="1200px" viewBox="0 0 1200 1200" enable-background="new 0 0 1200 1200" xml:space="preserve">
<g>
	<g>
		<g>
			<path d="M1045.736,447.619h-158.42v-90.825H768.574h-27.388h-26.888v90.825h-87.191v-90.825H600.22h-27.38H454.081v90.825H324.87
				c-3.673,0-7.561-0.132-11.384-0.462l-79.91-93.494c0,0-10.37-13.887-38.238-12.141c-17.191,1.088-35.552,0.825-47.25,0.462
				c-6.053-2.571-12.685-3.971-19.768-3.971c-28.23,0-51.278,22.999-51.278,51.302c0,28.353,23.048,51.319,51.278,51.319
				c18.533,0,34.572-9.786,43.69-24.365h26.911c0,0,17.347-5.123,36.426,20.939c5.149,6.886,14.39,19.176,25.206,33.312
				c-0.617,7.775,0.717,17.859,4.292,31.137L460.828,884l5.832,7.775l8.337,5.866l12.372,5.041l13.385,2.438h316.627
				c57.373-0.757,77.744-19.539,77.744-36.606l0.486-6.029l-0.874-5.866l-1.549-4.646l-2.24-4.315l-4.3-3.889l-6.384-2.504
				l-13.236-2.24H528.242c0,0-16.342,3.426-25.008-17.464l-22.562-46.953c0-10.873,36.583-12.192,47.57-12.192H931.32l6.004-0.592
				l5.997-0.66l6.755-1.284l6.854-3l4.218-3.032l2.643-3.295l3.106-5.074l2.495-3.887l136.369-239.938
				C1144.964,447.619,1113.85,446.103,1045.736,447.619z"/>
		</g>
		<g>
			<path d="M783.987,962.781c-51.83,0-93.651,41.878-93.651,93.608c0,51.764,41.821,93.61,93.651,93.61
				c51.697,0,93.625-41.846,93.625-93.61C877.612,1004.66,835.683,962.781,783.987,962.781z"/>
		</g>
		<g>
			<path d="M566.745,962.781c-51.584,0-93.553,41.878-93.553,93.608c0,51.764,41.969,93.61,93.553,93.61
				c51.837,0,93.715-41.846,93.715-93.61C660.459,1004.66,618.581,962.781,566.745,962.781z"/>
		</g>
		<g>
			<rect x="423.975" y="197.106" width="202.869" height="126.689"/>
		</g>
		<g>
			<rect x="714.307" y="197.106" width="198.24" height="126.689"/>
		</g>
		<g>
			<path d="M850.75,112.492c-18.542-14.68-66.854-5.339-66.854-5.339c-26.071,45.735-77.958,57.07-100.701,59.902l2.849,2.011
				C844.532,179.411,850.75,112.492,850.75,112.492z"/>
		</g>
		<g>
			<path d="M857.545,102.838l-33.269-50.759c-37.472-9.572-92.514,14.844-120.587,53.988
				c-22.537,27.299-29.011,51.796-28.863,51.401l-0.84,2.767c-0.049,0.1-0.066,0.148-0.1,0.28l0.191,0.148
				C764.876,66.395,857.545,102.838,857.545,102.838z"/>
		</g>
		<g>
			<path d="M485.77,112.492c0,0,6.228,66.918,164.706,56.574l2.851-2.011c-22.736-2.832-74.623-14.167-100.694-59.902
				C552.633,107.153,504.322,97.812,485.77,112.492z"/>
		</g>
		<g>
			<path d="M662.453,160.663l0.18-0.148c-0.024-0.132-0.04-0.18-0.089-0.28l-0.849-2.767c0.148,0.395-6.318-24.102-28.856-51.401
				c-28.072-39.144-83.13-63.56-120.585-53.988l-33.263,50.759C478.992,102.838,571.637,66.395,662.453,160.663z"/>
		</g>
	</g>
</g>
</svg>
